<svg width="19" height="21" viewBox="0 0 19 21" fill="none" xmlns="http://www.w3.org/2000/svg">
<path d="M17.049 6.62099L6.29602 18.5687C5.22524 19.7584 2.04666 20.3095 1.33656 19.5205C0.626457 18.7315 1.11113 15.1997 2.18192 14.01L12.9462 2.04976C13.2116 1.72797 13.533 1.46931 13.8909 1.28934C14.2488 1.10937 14.6359 1.01181 15.0287 1.00262C15.4214 0.99344 15.8118 1.07277 16.1762 1.23584C16.5406 1.39891 16.8716 1.64237 17.149 1.95146C17.4263 2.26055 17.6446 2.62888 17.7903 3.03422C17.936 3.43958 18.0065 3.87353 17.9971 4.30992C17.9878 4.74631 17.8988 5.17612 17.736 5.57331C17.573 5.9705 17.3393 6.32692 17.049 6.62099Z" stroke="black" stroke-width="2" stroke-linecap="round" stroke-linejoin="round"/>
</svg>
