<svg width="12" height="40" viewBox="0 0 12 40" fill="none" xmlns="http://www.w3.org/2000/svg">
<path d="M3.31018 40C2.75678 40 2.20337 39.836 1.7422 39.5901C0.174222 38.7702 -0.286951 37.0485 0.543156 35.6548C3.58688 30.8996 5.2471 25.5705 5.2471 20.0774C5.2471 14.5024 3.58688 9.09133 0.450923 4.33614C-0.471418 2.94238 0.0819838 1.22068 1.55773 0.40082C3.12571 -0.419039 5.06263 0.0728768 5.98497 1.38465C9.76657 7.04168 11.7035 13.5186 11.7035 20.0774C11.7035 26.5543 9.76657 32.8672 6.16944 38.5243C5.5238 39.5081 4.41699 40 3.31018 40Z" fill="url(#paint0_linear_10_27)"/>
<defs>
<linearGradient id="paint0_linear_10_27" x1="5.85174" y1="0" x2="5.85174" y2="40" gradientUnits="userSpaceOnUse">
<stop stop-color="#1271CA"/>
<stop offset="1" stop-color="#BADAFF"/>
</linearGradient>
</defs>
</svg>
