<svg width="17" height="59" viewBox="0 0 17 59" fill="none" xmlns="http://www.w3.org/2000/svg">
<path d="M3.88123 59C3.13946 59 2.49042 58.8352 1.84137 58.4231C0.172397 57.4341 -0.291205 55.3736 0.821444 53.8076C6.29197 46.6372 9.16631 38.313 9.16631 29.5766C9.16631 20.8403 6.19925 12.3512 0.636005 5.18077C-0.476644 3.69724 -0.105761 1.63678 1.56321 0.565338C3.23219 -0.423683 5.5502 -0.0940096 6.75557 1.38952C13.1533 9.71378 16.584 19.4392 16.584 29.4942C16.584 39.4668 13.246 49.1098 7.03374 57.3516C6.19925 58.5055 4.99388 59 3.88123 59Z" fill="url(#paint0_linear_10_28)"/>
<defs>
<linearGradient id="paint0_linear_10_28" x1="8.29198" y1="0" x2="8.29198" y2="59" gradientUnits="userSpaceOnUse">
<stop stop-color="#1271CA"/>
<stop offset="1" stop-color="#BADAFF"/>
</linearGradient>
</defs>
</svg>
