<svg xmlns="http://www.w3.org/2000/svg" width="100" height="100" viewBox="0 0 100 100" fill="none">
  <defs>
    <linearGradient id="blueGradient" x1="0%" y1="0%" x2="0%" y2="100%">
      <stop offset="0%" stop-color="#1271CA" />
      <stop offset="100%" stop-color="#BADAFF" />
    </linearGradient>
  </defs>
  <path d="M50 10C31.2 10 16 24.4 16 42.2C16 55.6 25.4 67 38.2 71.2V74.8C38.2 82.8 44.8 89.4 52.8 89.4H54.6C62.6 89.4 69.2 82.8 69.2 74.8V68.6C76.6 63.2 82 53.2 82 42.2C82 24.4 68.8 10 50 10Z" fill="url(#blueGradient)"/>
  <path d="M62 42.2C62 33 56.8 25.4 49 25.4C41.2 25.4 36 33 36 42.2C36 51.4 41.2 59 49 59C56.8 59 62 51.4 62 42.2Z" fill="white"/>
  <path d="M56 42.2C56 36.6 53 32 49 32C45 32 42 36.6 42 42.2C42 47.8 45 52.4 49 52.4C53 52.4 56 47.8 56 42.2Z" fill="url(#blueGradient)"/>
</svg> 