<svg width="35" height="37" viewBox="0 0 35 37" fill="none" xmlns="http://www.w3.org/2000/svg">
<path d="M3.68421 36.3509C1.65789 36.3509 0 34.8772 0 33.076C0 31.2749 1.65789 29.8012 3.68421 29.8012C5.52632 29.8012 7.09211 28.4912 7.09211 26.7719C7.09211 25.1345 5.61842 23.7427 3.68421 23.7427C1.65789 23.7427 0 22.269 0 20.4678V15.5556C0 6.95906 7.82895 0 17.5 0C27.1711 0 35 6.95906 35 15.5556C35 18.2573 34.2632 20.8772 32.7895 23.1696C32.6974 23.2515 32.6974 23.3333 32.6053 23.4152C31.8684 24.3977 30.1184 25.8713 27.1711 28.3275L26.0658 29.2281C24.5921 30.4561 22.1974 30.3743 20.8158 29.0643C19.4342 27.7544 19.5263 25.6257 21 24.3977L22.1053 23.5789C24.5 21.614 25.9737 20.386 26.4342 19.8129C27.1711 18.5029 27.6316 17.0292 27.6316 15.5556C27.6316 10.5614 23.1184 6.54971 17.5 6.54971C11.8816 6.54971 7.36842 10.5614 7.36842 15.5556V17.7661C11.5132 19.076 14.4605 22.5965 14.4605 26.7719C14.4605 32.0117 9.67105 36.3509 3.68421 36.3509Z" fill="url(#paint0_linear_10_26)"/>
<defs>
<linearGradient id="paint0_linear_10_26" x1="17.5" y1="0" x2="17.5" y2="36.3509" gradientUnits="userSpaceOnUse">
<stop stop-color="#1271CA"/>
<stop offset="1" stop-color="#BADAFF"/>
</linearGradient>
</defs>
</svg>
