<svg width="57" height="69" viewBox="0 0 57 69" fill="none" xmlns="http://www.w3.org/2000/svg">
<path d="M19.7491 69C11.7032 69 5.12014 63.1484 5.12014 55.9965C5.12014 54.2085 6.7659 52.7456 8.77739 52.7456C10.7889 52.7456 12.4346 54.2085 12.4346 55.9965C12.4346 59.5724 15.7262 62.4982 19.7491 62.4982C22.3092 62.4982 24.6864 61.2792 26.0579 59.3286C26.6065 58.5159 27.3379 57.053 28.1608 55.5088C29.7151 52.4205 31.4523 48.9258 33.6467 46.4064C35.3838 44.3746 37.9439 42.3428 40.4126 40.311C42.8812 38.2792 45.7156 35.9223 46.6299 34.4594C48.4585 31.6148 49.3728 28.4452 49.3728 25.1944C49.3728 14.8728 39.9554 6.50177 28.3436 6.50177C16.7319 6.50177 7.31449 14.8728 7.31449 25.1944C7.31449 26.9823 5.66873 28.4452 3.65724 28.4452C1.64576 28.4452 0 26.9823 0 25.1944C0 11.2968 12.7089 0 28.3436 0C43.9784 0 56.6873 11.2968 56.6873 25.1944C56.6873 29.583 55.4073 33.8905 52.9386 37.7103C51.4757 40.0671 48.4585 42.5053 45.2584 45.106C43.0641 46.9753 40.6868 48.8445 39.3154 50.3887C37.6696 52.258 36.0239 55.5088 34.7438 58.1096C33.8295 59.8975 33.0981 61.4417 32.2752 62.6608C29.7151 66.5619 24.8693 69 19.7491 69Z" fill="url(#paint0_linear_10_25)"/>
<defs>
<linearGradient id="paint0_linear_10_25" x1="28.3436" y1="0" x2="28.3436" y2="69" gradientUnits="userSpaceOnUse">
<stop stop-color="#1271CA"/>
<stop offset="1" stop-color="#BADAFF"/>
</linearGradient>
</defs>
</svg>
