<svg width="45" height="37" viewBox="0 0 45 37" fill="none" xmlns="http://www.w3.org/2000/svg">
<path d="M18.9844 13.6823C18.9844 12.0859 20.5584 10.7917 22.5 10.7917C24.4416 10.7917 26.0156 12.0859 26.0156 13.6823C26.0156 14.7421 25.3219 15.6687 24.2876 16.1719C23.3962 16.6055 22.5 17.2631 22.5 18.1146V20.0417" stroke="#1271CA" stroke-width="3.75" stroke-linecap="round"/>
<path d="M22.5 26.2083C23.5355 26.2083 24.375 25.5181 24.375 24.6667C24.375 23.8152 23.5355 23.125 22.5 23.125C21.4645 23.125 20.625 23.8152 20.625 24.6667C20.625 25.5181 21.4645 26.2083 22.5 26.2083Z" fill="#1271CA"/>
<path d="M13.125 5.14579C15.8829 3.83406 19.0849 3.08331 22.5 3.08331C32.8552 3.08331 41.25 9.98559 41.25 18.5C41.25 27.0143 32.8552 33.9166 22.5 33.9166C12.1447 33.9166 3.75 27.0143 3.75 18.5C3.75 15.692 4.66307 13.0592 6.25841 10.7916" stroke="#1271CA" stroke-width="3.75" stroke-linecap="round"/>
</svg>
