<svg width="187" height="211" viewBox="0 0 187 211" fill="none" xmlns="http://www.w3.org/2000/svg">
<path d="M45.7381 28.8374C82.8404 31.4026 99.5951 27.9517 111.285 27.9517C122.157 27.9517 127.272 68.2928 122.804 80.2053C118.592 91.4374 46.9046 91.8884 43.5671 87.44C39.7076 82.2942 41.9391 60.8075 41.9391 53.4363" stroke="black" stroke-opacity="0.9" stroke-width="5" stroke-linecap="round" stroke-linejoin="round"/>
<path d="M45.97 100.591C-4.98352 153.758 56.6843 144.27 69.2988 155.656" stroke="black" stroke-opacity="0.9" stroke-width="5" stroke-linecap="round" stroke-linejoin="round"/>
<path d="M45.9692 100.591C46.6525 112.728 47.2941 140.155 46.8729 143.954" stroke="black" stroke-opacity="0.9" stroke-width="5" stroke-linecap="round" stroke-linejoin="round"/>
<path d="M97.3838 71.866C97.3838 69.6083 97.3838 67.3501 97.3838 65.0914" stroke="black" stroke-opacity="0.9" stroke-width="5" stroke-linecap="round" stroke-linejoin="round"/>
<path d="M82.8873 72.4104C82.7638 70.6233 82.8877 66.5288 82.8877 65.0914" stroke="black" stroke-opacity="0.9" stroke-width="5" stroke-linecap="round" stroke-linejoin="round"/>
<path d="M95.0884 127.507C164.605 126.558 175.257 119.6 146.105 180.326" stroke="black" stroke-opacity="0.9" stroke-width="5" stroke-linecap="round" stroke-linejoin="round"/>
<path d="M133.495 182.224C92.0086 180.326 63.9778 197.406 83.3192 139.526" stroke="black" stroke-opacity="0.9" stroke-width="5" stroke-linecap="round" stroke-linejoin="round"/>
<path d="M84.1585 182.224C75.1601 174.806 65.1238 168.912 56.4077 160.716" stroke="black" stroke-opacity="0.9" stroke-width="5" stroke-linecap="round" stroke-linejoin="round"/>
<path d="M102.1 100.307C102.394 108.434 102.66 116.524 102.66 124.661" stroke="black" stroke-opacity="0.9" stroke-width="5" stroke-linecap="round" stroke-linejoin="round"/>
<path d="M102.1 100.307C105.606 106.575 108.913 110.654 113.031 121.498" stroke="black" stroke-opacity="0.9" stroke-width="5" stroke-linecap="round" stroke-linejoin="round"/>
<path d="M37.4551 62.7941C35.343 63.4171 33.2155 63.2947 31.0615 63.5163" stroke="black" stroke-opacity="0.9" stroke-width="5" stroke-linecap="round" stroke-linejoin="round"/>
<path d="M27.86 57.7449C27.8882 62.1163 27.8592 66.4201 27.5405 70.7303" stroke="black" stroke-opacity="0.9" stroke-width="5" stroke-linecap="round" stroke-linejoin="round"/>
<path d="M129.844 60.9906C131.44 60.8039 133.045 60.5692 134.638 60.2695" stroke="black" stroke-opacity="0.9" stroke-width="5" stroke-linecap="round" stroke-linejoin="round"/>
<path d="M136.235 55.2197C136.689 58.0825 136.555 60.9853 136.555 63.8765" stroke="black" stroke-opacity="0.9" stroke-width="5" stroke-linecap="round" stroke-linejoin="round"/>
<path d="M105.546 61.4358C95.0717 60.1313 84.9246 60.7548 74.8579 62.5446" stroke="black" stroke-opacity="0.9" stroke-width="5" stroke-linecap="round" stroke-linejoin="round"/>
</svg>